<mxfile host="Electron" agent="Mozilla/5.0 (Windows NT 10.0; Win64; x64) AppleWebKit/537.36 (KHTML, like Gecko) draw.io/24.7.17 Chrome/128.0.6613.36 Electron/32.0.1 Safari/537.36" version="24.7.17">
  <diagram id="C5RBs43oDa-KdzZeNtuy" name="Page-1">
    <mxGraphModel dx="2440" dy="1464" grid="1" gridSize="10" guides="1" tooltips="1" connect="1" arrows="1" fold="1" page="1" pageScale="1" pageWidth="827" pageHeight="1169" math="0" shadow="0">
      <root>
        <mxCell id="WIyWlLk6GJQsqaUBKTNV-0" />
        <mxCell id="WIyWlLk6GJQsqaUBKTNV-1" parent="WIyWlLk6GJQsqaUBKTNV-0" />
        <mxCell id="mqpPeJEpPNXo4DSsm6xn-88" value="sdrive_files" style="swimlane;whiteSpace=wrap;html=1;startSize=23;fillColor=#d5e8d4;gradientColor=#97d077;strokeColor=#82b366;container=0;strokeWidth=2;fontColor=#000000;" parent="WIyWlLk6GJQsqaUBKTNV-1" vertex="1">
          <mxGeometry x="935" y="50" width="620" height="1025" as="geometry" />
        </mxCell>
        <mxCell id="eUwCKPbLnIZFD1JXLJ_f-49" value="1" style="text;html=1;align=center;verticalAlign=middle;whiteSpace=wrap;rounded=0;fontColor=#67AB9F;fontStyle=1" vertex="1" parent="mqpPeJEpPNXo4DSsm6xn-88">
          <mxGeometry x="220" y="467" width="60" height="30" as="geometry" />
        </mxCell>
        <mxCell id="eUwCKPbLnIZFD1JXLJ_f-57" value="N" style="text;html=1;align=center;verticalAlign=middle;whiteSpace=wrap;rounded=0;fontColor=#FF0000;fontStyle=1" vertex="1" parent="mqpPeJEpPNXo4DSsm6xn-88">
          <mxGeometry x="5" y="90" width="60" height="30" as="geometry" />
        </mxCell>
        <mxCell id="eUwCKPbLnIZFD1JXLJ_f-71" value="1" style="text;html=1;align=center;verticalAlign=middle;whiteSpace=wrap;rounded=0;fontStyle=1" vertex="1" parent="mqpPeJEpPNXo4DSsm6xn-88">
          <mxGeometry x="235" y="406" width="60" height="30" as="geometry" />
        </mxCell>
        <mxCell id="eUwCKPbLnIZFD1JXLJ_f-77" value="N" style="text;html=1;align=center;verticalAlign=middle;whiteSpace=wrap;rounded=0;fontStyle=1" vertex="1" parent="mqpPeJEpPNXo4DSsm6xn-88">
          <mxGeometry x="235" y="210" width="60" height="30" as="geometry" />
        </mxCell>
        <mxCell id="eUwCKPbLnIZFD1JXLJ_f-84" value="1" style="text;html=1;align=center;verticalAlign=middle;whiteSpace=wrap;rounded=0;fontStyle=1" vertex="1" parent="mqpPeJEpPNXo4DSsm6xn-88">
          <mxGeometry x="235" y="467" width="60" height="30" as="geometry" />
        </mxCell>
        <mxCell id="eUwCKPbLnIZFD1JXLJ_f-85" value="N" style="text;html=1;align=center;verticalAlign=middle;whiteSpace=wrap;rounded=0;fontStyle=1" vertex="1" parent="mqpPeJEpPNXo4DSsm6xn-88">
          <mxGeometry x="235" y="150" width="60" height="30" as="geometry" />
        </mxCell>
        <mxCell id="eUwCKPbLnIZFD1JXLJ_f-116" value="N" style="text;html=1;align=center;verticalAlign=middle;whiteSpace=wrap;rounded=0;fontColor=#FF0000;fontStyle=1" vertex="1" parent="mqpPeJEpPNXo4DSsm6xn-88">
          <mxGeometry x="5" y="490" width="60" height="30" as="geometry" />
        </mxCell>
        <mxCell id="eUwCKPbLnIZFD1JXLJ_f-125" value="1" style="text;html=1;align=center;verticalAlign=middle;whiteSpace=wrap;rounded=0;fontColor=#FF0000;fontStyle=1" vertex="1" parent="mqpPeJEpPNXo4DSsm6xn-88">
          <mxGeometry x="-13" y="866" width="60" height="30" as="geometry" />
        </mxCell>
        <mxCell id="eUwCKPbLnIZFD1JXLJ_f-126" value="1" style="text;html=1;align=center;verticalAlign=middle;whiteSpace=wrap;rounded=0;fontColor=#FF0000;fontStyle=1" vertex="1" parent="mqpPeJEpPNXo4DSsm6xn-88">
          <mxGeometry x="357" y="924" width="60" height="30" as="geometry" />
        </mxCell>
        <mxCell id="eUwCKPbLnIZFD1JXLJ_f-127" value="1" style="text;html=1;align=center;verticalAlign=middle;whiteSpace=wrap;rounded=0;fontStyle=1" vertex="1" parent="mqpPeJEpPNXo4DSsm6xn-88">
          <mxGeometry x="357" y="810" width="60" height="30" as="geometry" />
        </mxCell>
        <mxCell id="eUwCKPbLnIZFD1JXLJ_f-128" value="1" style="text;html=1;align=center;verticalAlign=middle;whiteSpace=wrap;rounded=0;fontStyle=1" vertex="1" parent="mqpPeJEpPNXo4DSsm6xn-88">
          <mxGeometry x="357" y="836" width="60" height="30" as="geometry" />
        </mxCell>
        <mxCell id="mqpPeJEpPNXo4DSsm6xn-89" value="sdrive_logins" style="swimlane;whiteSpace=wrap;html=1;fillColor=#dae8fc;gradientColor=#7ea6e0;strokeColor=#6c8ebf;container=0;strokeWidth=2;" parent="WIyWlLk6GJQsqaUBKTNV-1" vertex="1">
          <mxGeometry x="200" y="50" width="660" height="980" as="geometry" />
        </mxCell>
        <mxCell id="PCbA790wtaqUP_7SGAwk-0" value="google_auth_secret" style="text;strokeColor=#23445d;fillColor=#bac8d3;align=left;verticalAlign=middle;spacingLeft=4;spacingRight=4;overflow=hidden;points=[[0,0.5],[1,0.5]];portConstraint=eastwest;rotatable=0;whiteSpace=wrap;html=1;strokeWidth=2;container=0;" parent="mqpPeJEpPNXo4DSsm6xn-89" vertex="1">
          <mxGeometry x="400" y="705" width="210" height="30" as="geometry" />
        </mxCell>
        <mxCell id="PCbA790wtaqUP_7SGAwk-6" value="members_storages" style="swimlane;fontStyle=0;childLayout=stackLayout;horizontal=1;startSize=30;horizontalStack=0;resizeParent=1;resizeParentMax=0;resizeLast=0;collapsible=1;marginBottom=0;whiteSpace=wrap;html=1;strokeWidth=2;fillColor=#9AC7BF;strokeColor=#82b366;container=0;" parent="mqpPeJEpPNXo4DSsm6xn-89" vertex="1">
          <mxGeometry x="400" y="775" width="210" height="90" as="geometry" />
        </mxCell>
        <mxCell id="PCbA790wtaqUP_7SGAwk-7" value="PK id_pass_codes" style="text;strokeColor=#82b366;fillColor=#9AC7BF;align=left;verticalAlign=middle;spacingLeft=4;spacingRight=4;overflow=hidden;points=[[0,0.5],[1,0.5]];portConstraint=eastwest;rotatable=0;whiteSpace=wrap;html=1;strokeWidth=2;container=0;" parent="mqpPeJEpPNXo4DSsm6xn-89" vertex="1">
          <mxGeometry x="400" y="805" width="210" height="30" as="geometry" />
        </mxCell>
        <mxCell id="PCbA790wtaqUP_7SGAwk-8" value="FK safeid_pass_codes" style="text;strokeColor=#82b366;fillColor=#9AC7BF;align=left;verticalAlign=middle;spacingLeft=4;spacingRight=4;overflow=hidden;points=[[0,0.5],[1,0.5]];portConstraint=eastwest;rotatable=0;whiteSpace=wrap;html=1;strokeWidth=2;container=0;" parent="mqpPeJEpPNXo4DSsm6xn-89" vertex="1">
          <mxGeometry x="400" y="835" width="210" height="30" as="geometry" />
        </mxCell>
        <mxCell id="PCbA790wtaqUP_7SGAwk-9" value="code_pass_codes" style="text;strokeColor=#82b366;fillColor=#9AC7BF;align=left;verticalAlign=middle;spacingLeft=4;spacingRight=4;overflow=hidden;points=[[0,0.5],[1,0.5]];portConstraint=eastwest;rotatable=0;whiteSpace=wrap;html=1;strokeWidth=2;container=0;" parent="mqpPeJEpPNXo4DSsm6xn-89" vertex="1">
          <mxGeometry x="400" y="865" width="210" height="30" as="geometry" />
        </mxCell>
        <mxCell id="eUwCKPbLnIZFD1JXLJ_f-26" value="1" style="text;html=1;align=center;verticalAlign=middle;whiteSpace=wrap;rounded=0;fontColor=#FF0000;fontStyle=1" vertex="1" parent="mqpPeJEpPNXo4DSsm6xn-89">
          <mxGeometry x="590" y="638" width="60" height="30" as="geometry" />
        </mxCell>
        <mxCell id="eUwCKPbLnIZFD1JXLJ_f-43" value="1" style="text;html=1;align=center;verticalAlign=middle;whiteSpace=wrap;rounded=0;fontColor=#FF0000;fontStyle=1" vertex="1" parent="mqpPeJEpPNXo4DSsm6xn-89">
          <mxGeometry x="360" y="638" width="60" height="30" as="geometry" />
        </mxCell>
        <mxCell id="eUwCKPbLnIZFD1JXLJ_f-44" value="1" style="text;html=1;align=center;verticalAlign=middle;whiteSpace=wrap;rounded=0;fontStyle=1" vertex="1" parent="mqpPeJEpPNXo4DSsm6xn-89">
          <mxGeometry x="360" y="489" width="60" height="30" as="geometry" />
        </mxCell>
        <mxCell id="eUwCKPbLnIZFD1JXLJ_f-46" value="1" style="text;html=1;align=center;verticalAlign=middle;whiteSpace=wrap;rounded=0;fontStyle=1" vertex="1" parent="mqpPeJEpPNXo4DSsm6xn-89">
          <mxGeometry x="360" y="458" width="60" height="30" as="geometry" />
        </mxCell>
        <mxCell id="eUwCKPbLnIZFD1JXLJ_f-47" value="1" style="text;html=1;align=center;verticalAlign=middle;whiteSpace=wrap;rounded=0;fontStyle=1" vertex="1" parent="mqpPeJEpPNXo4DSsm6xn-89">
          <mxGeometry x="360" y="273" width="60" height="30" as="geometry" />
        </mxCell>
        <mxCell id="eUwCKPbLnIZFD1JXLJ_f-50" value="1" style="text;html=1;align=center;verticalAlign=middle;whiteSpace=wrap;rounded=0;fontStyle=1" vertex="1" parent="mqpPeJEpPNXo4DSsm6xn-89">
          <mxGeometry x="20" y="420" width="60" height="30" as="geometry" />
        </mxCell>
        <mxCell id="eUwCKPbLnIZFD1JXLJ_f-51" value="1" style="text;html=1;align=center;verticalAlign=middle;whiteSpace=wrap;rounded=0;fontStyle=1" vertex="1" parent="mqpPeJEpPNXo4DSsm6xn-89">
          <mxGeometry x="250" y="336" width="60" height="30" as="geometry" />
        </mxCell>
        <mxCell id="eUwCKPbLnIZFD1JXLJ_f-52" value="1" style="text;html=1;align=center;verticalAlign=middle;whiteSpace=wrap;rounded=0;fontStyle=1" vertex="1" parent="mqpPeJEpPNXo4DSsm6xn-89">
          <mxGeometry x="250" y="361" width="60" height="30" as="geometry" />
        </mxCell>
        <mxCell id="eUwCKPbLnIZFD1JXLJ_f-53" value="1" style="text;html=1;align=center;verticalAlign=middle;whiteSpace=wrap;rounded=0;fontStyle=1" vertex="1" parent="mqpPeJEpPNXo4DSsm6xn-89">
          <mxGeometry x="260" y="887" width="60" height="30" as="geometry" />
        </mxCell>
        <mxCell id="eUwCKPbLnIZFD1JXLJ_f-54" value="1" style="text;html=1;align=center;verticalAlign=middle;whiteSpace=wrap;rounded=0;fontStyle=1" vertex="1" parent="mqpPeJEpPNXo4DSsm6xn-89">
          <mxGeometry x="30" y="917" width="60" height="30" as="geometry" />
        </mxCell>
        <mxCell id="eUwCKPbLnIZFD1JXLJ_f-55" value="N" style="text;html=1;align=center;verticalAlign=middle;whiteSpace=wrap;rounded=0;fontStyle=1" vertex="1" parent="mqpPeJEpPNXo4DSsm6xn-89">
          <mxGeometry x="20" y="590" width="60" height="30" as="geometry" />
        </mxCell>
        <mxCell id="eUwCKPbLnIZFD1JXLJ_f-56" value="1" style="text;html=1;align=center;verticalAlign=middle;whiteSpace=wrap;rounded=0;fontStyle=1" vertex="1" parent="mqpPeJEpPNXo4DSsm6xn-89">
          <mxGeometry x="20" y="220" width="60" height="30" as="geometry" />
        </mxCell>
        <mxCell id="eUwCKPbLnIZFD1JXLJ_f-86" value="1" style="text;html=1;align=center;verticalAlign=middle;whiteSpace=wrap;rounded=0;fontColor=#FF0000;fontStyle=1" vertex="1" parent="mqpPeJEpPNXo4DSsm6xn-89">
          <mxGeometry x="250" y="560" width="60" height="30" as="geometry" />
        </mxCell>
        <mxCell id="eUwCKPbLnIZFD1JXLJ_f-87" value="1" style="text;html=1;align=center;verticalAlign=middle;whiteSpace=wrap;rounded=0;fontColor=#FF0000;fontStyle=1" vertex="1" parent="mqpPeJEpPNXo4DSsm6xn-89">
          <mxGeometry x="250" y="530" width="60" height="30" as="geometry" />
        </mxCell>
        <mxCell id="eUwCKPbLnIZFD1JXLJ_f-88" value="N" style="text;html=1;align=center;verticalAlign=middle;whiteSpace=wrap;rounded=0;fontColor=#FF0000;fontStyle=1" vertex="1" parent="mqpPeJEpPNXo4DSsm6xn-89">
          <mxGeometry x="260" y="700" width="60" height="30" as="geometry" />
        </mxCell>
        <mxCell id="eUwCKPbLnIZFD1JXLJ_f-89" value="1" style="text;html=1;align=center;verticalAlign=middle;whiteSpace=wrap;rounded=0;fontColor=#FF0000;fontStyle=1" vertex="1" parent="mqpPeJEpPNXo4DSsm6xn-89">
          <mxGeometry x="250" y="130" width="60" height="30" as="geometry" />
        </mxCell>
        <mxCell id="eUwCKPbLnIZFD1JXLJ_f-90" value="N" style="text;html=1;align=center;verticalAlign=middle;whiteSpace=wrap;rounded=0;fontColor=#FF0000;fontStyle=1" vertex="1" parent="mqpPeJEpPNXo4DSsm6xn-89">
          <mxGeometry x="250" y="100" width="60" height="30" as="geometry" />
        </mxCell>
        <mxCell id="eUwCKPbLnIZFD1JXLJ_f-114" value="1" style="text;html=1;align=center;verticalAlign=middle;whiteSpace=wrap;rounded=0;fontColor=#FF0000;fontStyle=1" vertex="1" parent="mqpPeJEpPNXo4DSsm6xn-89">
          <mxGeometry x="360" y="331" width="60" height="30" as="geometry" />
        </mxCell>
        <mxCell id="eUwCKPbLnIZFD1JXLJ_f-115" value="1" style="text;html=1;align=center;verticalAlign=middle;whiteSpace=wrap;rounded=0;fontColor=#FF0000;fontStyle=1" vertex="1" parent="mqpPeJEpPNXo4DSsm6xn-89">
          <mxGeometry x="360" y="820" width="60" height="30" as="geometry" />
        </mxCell>
        <mxCell id="mqpPeJEpPNXo4DSsm6xn-60" value="messages" style="swimlane;fontStyle=0;childLayout=stackLayout;horizontal=1;startSize=30;horizontalStack=0;resizeParent=1;resizeParentMax=0;resizeLast=0;collapsible=1;marginBottom=0;whiteSpace=wrap;html=1;strokeWidth=2;fillColor=#d5e8d4;strokeColor=#82b366;container=0;" parent="WIyWlLk6GJQsqaUBKTNV-1" vertex="1">
          <mxGeometry x="260" y="100" width="210" height="90" as="geometry" />
        </mxCell>
        <mxCell id="mqpPeJEpPNXo4DSsm6xn-63" value="content_messages" style="text;strokeColor=#82b366;fillColor=#d5e8d4;align=left;verticalAlign=middle;spacingLeft=4;spacingRight=4;overflow=hidden;points=[[0,0.5],[1,0.5]];portConstraint=eastwest;rotatable=0;whiteSpace=wrap;html=1;strokeWidth=2;container=0;" parent="WIyWlLk6GJQsqaUBKTNV-1" vertex="1">
          <mxGeometry x="260" y="220" width="210" height="30" as="geometry" />
        </mxCell>
        <mxCell id="mqpPeJEpPNXo4DSsm6xn-64" value="FK sender_messages" style="text;strokeColor=#82b366;fillColor=#d5e8d4;align=left;verticalAlign=middle;spacingLeft=4;spacingRight=4;overflow=hidden;points=[[0,0.5],[1,0.5]];portConstraint=eastwest;rotatable=0;whiteSpace=wrap;html=1;strokeWidth=2;container=0;" parent="WIyWlLk6GJQsqaUBKTNV-1" vertex="1">
          <mxGeometry x="260" y="190" width="210" height="30" as="geometry" />
        </mxCell>
        <mxCell id="mqpPeJEpPNXo4DSsm6xn-65" value="date_messages" style="text;strokeColor=#82b366;fillColor=#d5e8d4;align=left;verticalAlign=middle;spacingLeft=4;spacingRight=4;overflow=hidden;points=[[0,0.5],[1,0.5]];portConstraint=eastwest;rotatable=0;whiteSpace=wrap;html=1;strokeWidth=2;container=0;" parent="WIyWlLk6GJQsqaUBKTNV-1" vertex="1">
          <mxGeometry x="260" y="250" width="210" height="30" as="geometry" />
        </mxCell>
        <mxCell id="mqpPeJEpPNXo4DSsm6xn-66" value="FK codemsg_messages" style="text;strokeColor=#82b366;fillColor=#d5e8d4;align=left;verticalAlign=middle;spacingLeft=4;spacingRight=4;overflow=hidden;points=[[0,0.5],[1,0.5]];portConstraint=eastwest;rotatable=0;whiteSpace=wrap;html=1;strokeWidth=2;container=0;" parent="WIyWlLk6GJQsqaUBKTNV-1" vertex="1">
          <mxGeometry x="260" y="280" width="210" height="30" as="geometry" />
        </mxCell>
        <mxCell id="mqpPeJEpPNXo4DSsm6xn-67" value="notifications" style="swimlane;fontStyle=0;childLayout=stackLayout;horizontal=1;startSize=30;horizontalStack=0;resizeParent=1;resizeParentMax=0;resizeLast=0;collapsible=1;marginBottom=0;whiteSpace=wrap;html=1;strokeWidth=2;fillColor=#e1d5e7;strokeColor=#9673a6;container=0;" parent="WIyWlLk6GJQsqaUBKTNV-1" vertex="1">
          <mxGeometry x="270" y="705" width="210" height="90" as="geometry" />
        </mxCell>
        <mxCell id="mqpPeJEpPNXo4DSsm6xn-70" value="msg_notifications" style="text;strokeColor=#9673a6;fillColor=#e1d5e7;align=left;verticalAlign=middle;spacingLeft=4;spacingRight=4;overflow=hidden;points=[[0,0.5],[1,0.5]];portConstraint=eastwest;rotatable=0;whiteSpace=wrap;html=1;strokeWidth=2;container=0;" parent="WIyWlLk6GJQsqaUBKTNV-1" vertex="1">
          <mxGeometry x="270" y="825" width="210" height="30" as="geometry" />
        </mxCell>
        <mxCell id="mqpPeJEpPNXo4DSsm6xn-71" value="head_notifications" style="text;strokeColor=#9673a6;fillColor=#e1d5e7;align=left;verticalAlign=middle;spacingLeft=4;spacingRight=4;overflow=hidden;points=[[0,0.5],[1,0.5]];portConstraint=eastwest;rotatable=0;whiteSpace=wrap;html=1;strokeWidth=2;container=0;" parent="WIyWlLk6GJQsqaUBKTNV-1" vertex="1">
          <mxGeometry x="270" y="795" width="210" height="30" as="geometry" />
        </mxCell>
        <mxCell id="mqpPeJEpPNXo4DSsm6xn-72" value="type_notifications" style="text;strokeColor=#9673a6;fillColor=#e1d5e7;align=left;verticalAlign=middle;spacingLeft=4;spacingRight=4;overflow=hidden;points=[[0,0.5],[1,0.5]];portConstraint=eastwest;rotatable=0;whiteSpace=wrap;html=1;strokeWidth=2;container=0;" parent="WIyWlLk6GJQsqaUBKTNV-1" vertex="1">
          <mxGeometry x="270" y="855" width="210" height="30" as="geometry" />
        </mxCell>
        <mxCell id="mqpPeJEpPNXo4DSsm6xn-73" value="status_notifications" style="text;strokeColor=#9673a6;fillColor=#e1d5e7;align=left;verticalAlign=middle;spacingLeft=4;spacingRight=4;overflow=hidden;points=[[0,0.5],[1,0.5]];portConstraint=eastwest;rotatable=0;whiteSpace=wrap;html=1;strokeWidth=2;container=0;" parent="WIyWlLk6GJQsqaUBKTNV-1" vertex="1">
          <mxGeometry x="270" y="885" width="210" height="30" as="geometry" />
        </mxCell>
        <mxCell id="mqpPeJEpPNXo4DSsm6xn-74" value="date_notifications" style="text;strokeColor=#9673a6;fillColor=#e1d5e7;align=left;verticalAlign=middle;spacingLeft=4;spacingRight=4;overflow=hidden;points=[[0,0.5],[1,0.5]];portConstraint=eastwest;rotatable=0;whiteSpace=wrap;html=1;strokeWidth=2;container=0;" parent="WIyWlLk6GJQsqaUBKTNV-1" vertex="1">
          <mxGeometry x="270" y="915" width="210" height="30" as="geometry" />
        </mxCell>
        <mxCell id="mqpPeJEpPNXo4DSsm6xn-75" value="FK noteid_notifications" style="text;strokeColor=#9673a6;fillColor=#e1d5e7;align=left;verticalAlign=middle;spacingLeft=4;spacingRight=4;overflow=hidden;points=[[0,0.5],[1,0.5]];portConstraint=eastwest;rotatable=0;whiteSpace=wrap;html=1;strokeWidth=2;container=0;" parent="WIyWlLk6GJQsqaUBKTNV-1" vertex="1">
          <mxGeometry x="270" y="975" width="210" height="30" as="geometry" />
        </mxCell>
        <mxCell id="mqpPeJEpPNXo4DSsm6xn-77" value="FK dispatcher_notifications" style="text;strokeColor=#9673a6;fillColor=#e1d5e7;align=left;verticalAlign=middle;spacingLeft=4;spacingRight=4;overflow=hidden;points=[[0,0.5],[1,0.5]];portConstraint=eastwest;rotatable=0;whiteSpace=wrap;html=1;strokeWidth=2;container=0;" parent="WIyWlLk6GJQsqaUBKTNV-1" vertex="1">
          <mxGeometry x="270" y="945" width="210" height="30" as="geometry" />
        </mxCell>
        <mxCell id="mqpPeJEpPNXo4DSsm6xn-68" value="PK id_notifications" style="text;strokeColor=#9673a6;fillColor=#e1d5e7;align=left;verticalAlign=middle;spacingLeft=4;spacingRight=4;overflow=hidden;points=[[0,0.5],[1,0.5]];portConstraint=eastwest;rotatable=0;whiteSpace=wrap;html=1;strokeWidth=2;container=0;" parent="WIyWlLk6GJQsqaUBKTNV-1" vertex="1">
          <mxGeometry x="270" y="735" width="210" height="30" as="geometry" />
        </mxCell>
        <mxCell id="mqpPeJEpPNXo4DSsm6xn-69" value="FK user_notifications" style="text;strokeColor=#9673a6;fillColor=#e1d5e7;align=left;verticalAlign=middle;spacingLeft=4;spacingRight=4;overflow=hidden;points=[[0,0.5],[1,0.5]];portConstraint=eastwest;rotatable=0;whiteSpace=wrap;html=1;strokeWidth=2;container=0;" parent="WIyWlLk6GJQsqaUBKTNV-1" vertex="1">
          <mxGeometry x="270" y="765" width="210" height="30" as="geometry" />
        </mxCell>
        <mxCell id="mqpPeJEpPNXo4DSsm6xn-78" value="users" style="swimlane;fontStyle=0;childLayout=stackLayout;horizontal=1;startSize=30;horizontalStack=0;resizeParent=1;resizeParentMax=0;resizeLast=0;collapsible=1;marginBottom=0;whiteSpace=wrap;html=1;strokeWidth=2;fillColor=#bac8d3;strokeColor=#23445d;container=0;" parent="WIyWlLk6GJQsqaUBKTNV-1" vertex="1">
          <mxGeometry x="600" y="485" width="210" height="210" as="geometry" />
        </mxCell>
        <mxCell id="PCbA790wtaqUP_7SGAwk-4" value="id_storage_members_storages" style="text;strokeColor=#56517e;fillColor=#d0cee2;align=left;verticalAlign=middle;spacingLeft=4;spacingRight=4;overflow=hidden;points=[[0,0.5],[1,0.5]];portConstraint=eastwest;rotatable=0;whiteSpace=wrap;html=1;strokeWidth=2;container=0;" parent="mqpPeJEpPNXo4DSsm6xn-78" vertex="1">
          <mxGeometry y="30" width="210" height="30" as="geometry" />
        </mxCell>
        <mxCell id="PCbA790wtaqUP_7SGAwk-3" value="id_members_storages" style="text;strokeColor=#56517e;fillColor=#d0cee2;align=left;verticalAlign=middle;spacingLeft=4;spacingRight=4;overflow=hidden;points=[[0,0.5],[1,0.5]];portConstraint=eastwest;rotatable=0;whiteSpace=wrap;html=1;strokeWidth=2;container=0;" parent="mqpPeJEpPNXo4DSsm6xn-78" vertex="1">
          <mxGeometry y="60" width="210" height="30" as="geometry" />
        </mxCell>
        <mxCell id="PCbA790wtaqUP_7SGAwk-2" value="id_user_members_storages" style="text;strokeColor=#56517e;fillColor=#d0cee2;align=left;verticalAlign=middle;spacingLeft=4;spacingRight=4;overflow=hidden;points=[[0,0.5],[1,0.5]];portConstraint=eastwest;rotatable=0;whiteSpace=wrap;html=1;strokeWidth=2;container=0;" parent="mqpPeJEpPNXo4DSsm6xn-78" vertex="1">
          <mxGeometry y="90" width="210" height="30" as="geometry" />
        </mxCell>
        <mxCell id="PCbA790wtaqUP_7SGAwk-1" value="members_storages" style="swimlane;fontStyle=0;childLayout=stackLayout;horizontal=1;startSize=30;horizontalStack=0;resizeParent=1;resizeParentMax=0;resizeLast=0;collapsible=1;marginBottom=0;whiteSpace=wrap;html=1;strokeWidth=2;fillColor=#d0cee2;strokeColor=#56517e;container=0;" parent="mqpPeJEpPNXo4DSsm6xn-78" vertex="1">
          <mxGeometry y="120" width="210" height="90" as="geometry" />
        </mxCell>
        <mxCell id="mqpPeJEpPNXo4DSsm6xn-81" value="firstname_users" style="text;strokeColor=#23445d;fillColor=#bac8d3;align=left;verticalAlign=middle;spacingLeft=4;spacingRight=4;overflow=hidden;points=[[0,0.5],[1,0.5]];portConstraint=eastwest;rotatable=0;whiteSpace=wrap;html=1;strokeWidth=2;container=0;" parent="WIyWlLk6GJQsqaUBKTNV-1" vertex="1">
          <mxGeometry x="600" y="605" width="210" height="30" as="geometry" />
        </mxCell>
        <mxCell id="mqpPeJEpPNXo4DSsm6xn-82" value="password_users" style="text;strokeColor=#23445d;fillColor=#bac8d3;align=left;verticalAlign=middle;spacingLeft=4;spacingRight=4;overflow=hidden;points=[[0,0.5],[1,0.5]];portConstraint=eastwest;rotatable=0;whiteSpace=wrap;html=1;strokeWidth=2;container=0;" parent="WIyWlLk6GJQsqaUBKTNV-1" vertex="1">
          <mxGeometry x="600" y="575" width="210" height="30" as="geometry" />
        </mxCell>
        <mxCell id="mqpPeJEpPNXo4DSsm6xn-83" value="lastname_users" style="text;strokeColor=#23445d;fillColor=#bac8d3;align=left;verticalAlign=middle;spacingLeft=4;spacingRight=4;overflow=hidden;points=[[0,0.5],[1,0.5]];portConstraint=eastwest;rotatable=0;whiteSpace=wrap;html=1;strokeWidth=2;container=0;" parent="WIyWlLk6GJQsqaUBKTNV-1" vertex="1">
          <mxGeometry x="600" y="635" width="210" height="30" as="geometry" />
        </mxCell>
        <mxCell id="mqpPeJEpPNXo4DSsm6xn-84" value="dateofbirth_users" style="text;strokeColor=#23445d;fillColor=#bac8d3;align=left;verticalAlign=middle;spacingLeft=4;spacingRight=4;overflow=hidden;points=[[0,0.5],[1,0.5]];portConstraint=eastwest;rotatable=0;whiteSpace=wrap;html=1;strokeWidth=2;container=0;" parent="WIyWlLk6GJQsqaUBKTNV-1" vertex="1">
          <mxGeometry x="600" y="665" width="210" height="30" as="geometry" />
        </mxCell>
        <mxCell id="mqpPeJEpPNXo4DSsm6xn-85" value="safeid_users" style="text;strokeColor=#23445d;fillColor=#bac8d3;align=left;verticalAlign=middle;spacingLeft=4;spacingRight=4;overflow=hidden;points=[[0,0.5],[1,0.5]];portConstraint=eastwest;rotatable=0;whiteSpace=wrap;html=1;strokeWidth=2;container=0;" parent="WIyWlLk6GJQsqaUBKTNV-1" vertex="1">
          <mxGeometry x="600" y="695" width="210" height="30" as="geometry" />
        </mxCell>
        <mxCell id="mqpPeJEpPNXo4DSsm6xn-87" value="type_users" style="text;strokeColor=#23445d;fillColor=#bac8d3;align=left;verticalAlign=middle;spacingLeft=4;spacingRight=4;overflow=hidden;points=[[0,0.5],[1,0.5]];portConstraint=eastwest;rotatable=0;whiteSpace=wrap;html=1;strokeWidth=2;container=0;" parent="WIyWlLk6GJQsqaUBKTNV-1" vertex="1">
          <mxGeometry x="600" y="725" width="210" height="30" as="geometry" />
        </mxCell>
        <mxCell id="mqpPeJEpPNXo4DSsm6xn-53" value="members_storages" style="swimlane;fontStyle=0;childLayout=stackLayout;horizontal=1;startSize=30;horizontalStack=0;resizeParent=1;resizeParentMax=0;resizeLast=0;collapsible=1;marginBottom=0;whiteSpace=wrap;html=1;strokeWidth=2;fillColor=#d0cee2;strokeColor=#56517e;container=0;" parent="WIyWlLk6GJQsqaUBKTNV-1" vertex="1">
          <mxGeometry x="600" y="240" width="210" height="90" as="geometry" />
        </mxCell>
        <mxCell id="mqpPeJEpPNXo4DSsm6xn-56" value="date_members_storages" style="text;strokeColor=#56517e;fillColor=#d0cee2;align=left;verticalAlign=middle;spacingLeft=4;spacingRight=4;overflow=hidden;points=[[0,0.5],[1,0.5]];portConstraint=eastwest;rotatable=0;whiteSpace=wrap;html=1;strokeWidth=2;container=0;" parent="WIyWlLk6GJQsqaUBKTNV-1" vertex="1">
          <mxGeometry x="600" y="360" width="210" height="30" as="geometry" />
        </mxCell>
        <mxCell id="mqpPeJEpPNXo4DSsm6xn-57" value="FK id_user_members_storages" style="text;strokeColor=#56517e;fillColor=#d0cee2;align=left;verticalAlign=middle;spacingLeft=4;spacingRight=4;overflow=hidden;points=[[0,0.5],[1,0.5]];portConstraint=eastwest;rotatable=0;whiteSpace=wrap;html=1;strokeWidth=2;container=0;" parent="WIyWlLk6GJQsqaUBKTNV-1" vertex="1">
          <mxGeometry x="600" y="330" width="210" height="30" as="geometry" />
        </mxCell>
        <mxCell id="mqpPeJEpPNXo4DSsm6xn-58" value="FK modificator_members_storages" style="text;strokeColor=#56517e;fillColor=#d0cee2;align=left;verticalAlign=middle;spacingLeft=4;spacingRight=4;overflow=hidden;points=[[0,0.5],[1,0.5]];portConstraint=eastwest;rotatable=0;whiteSpace=wrap;html=1;strokeWidth=2;container=0;" parent="WIyWlLk6GJQsqaUBKTNV-1" vertex="1">
          <mxGeometry x="600" y="390" width="210" height="30" as="geometry" />
        </mxCell>
        <mxCell id="mqpPeJEpPNXo4DSsm6xn-59" value="active_members_storages" style="text;strokeColor=#56517e;fillColor=#d0cee2;align=left;verticalAlign=middle;spacingLeft=4;spacingRight=4;overflow=hidden;points=[[0,0.5],[1,0.5]];portConstraint=eastwest;rotatable=0;whiteSpace=wrap;html=1;strokeWidth=2;container=0;" parent="WIyWlLk6GJQsqaUBKTNV-1" vertex="1">
          <mxGeometry x="600" y="420" width="210" height="30" as="geometry" />
        </mxCell>
        <mxCell id="mqpPeJEpPNXo4DSsm6xn-47" value="friends" style="swimlane;fontStyle=0;childLayout=stackLayout;horizontal=1;startSize=30;horizontalStack=0;resizeParent=1;resizeParentMax=0;resizeLast=0;collapsible=1;marginBottom=0;whiteSpace=wrap;html=1;strokeWidth=2;fillColor=#dae8fc;strokeColor=#6c8ebf;container=0;" parent="WIyWlLk6GJQsqaUBKTNV-1" vertex="1">
          <mxGeometry x="260" y="330" width="210" height="90" as="geometry" />
        </mxCell>
        <mxCell id="mqpPeJEpPNXo4DSsm6xn-50" value="status_friends" style="text;strokeColor=#6c8ebf;fillColor=#dae8fc;align=left;verticalAlign=middle;spacingLeft=4;spacingRight=4;overflow=hidden;points=[[0,0.5],[1,0.5]];portConstraint=eastwest;rotatable=0;whiteSpace=wrap;html=1;strokeWidth=2;container=0;" parent="WIyWlLk6GJQsqaUBKTNV-1" vertex="1">
          <mxGeometry x="260" y="450" width="210" height="30" as="geometry" />
        </mxCell>
        <mxCell id="mqpPeJEpPNXo4DSsm6xn-51" value="FK id_user_2_friends" style="text;strokeColor=#6c8ebf;fillColor=#dae8fc;align=left;verticalAlign=middle;spacingLeft=4;spacingRight=4;overflow=hidden;points=[[0,0.5],[1,0.5]];portConstraint=eastwest;rotatable=0;whiteSpace=wrap;html=1;strokeWidth=2;container=0;" parent="WIyWlLk6GJQsqaUBKTNV-1" vertex="1">
          <mxGeometry x="260" y="420" width="210" height="30" as="geometry" />
        </mxCell>
        <mxCell id="mqpPeJEpPNXo4DSsm6xn-52" value="noteid_notifications_friends" style="text;strokeColor=#6c8ebf;fillColor=#dae8fc;align=left;verticalAlign=middle;spacingLeft=4;spacingRight=4;overflow=hidden;points=[[0,0.5],[1,0.5]];portConstraint=eastwest;rotatable=0;whiteSpace=wrap;html=1;strokeWidth=2;container=0;" parent="WIyWlLk6GJQsqaUBKTNV-1" vertex="1">
          <mxGeometry x="260" y="480" width="210" height="30" as="geometry" />
        </mxCell>
        <mxCell id="mqpPeJEpPNXo4DSsm6xn-41" value="conversations" style="swimlane;fontStyle=0;childLayout=stackLayout;horizontal=1;startSize=30;horizontalStack=0;resizeParent=1;resizeParentMax=0;resizeLast=0;collapsible=1;marginBottom=0;whiteSpace=wrap;html=1;strokeWidth=2;fillColor=#b0e3e6;strokeColor=#0e8088;container=0;" parent="WIyWlLk6GJQsqaUBKTNV-1" vertex="1">
          <mxGeometry x="260" y="530" width="210" height="90" as="geometry" />
        </mxCell>
        <mxCell id="mqpPeJEpPNXo4DSsm6xn-44" value="FK codemsg_conversations" style="text;strokeColor=#0e8088;fillColor=#b0e3e6;align=left;verticalAlign=middle;spacingLeft=4;spacingRight=4;overflow=hidden;points=[[0,0.5],[1,0.5]];portConstraint=eastwest;rotatable=0;whiteSpace=wrap;html=1;strokeWidth=2;container=0;" parent="WIyWlLk6GJQsqaUBKTNV-1" vertex="1">
          <mxGeometry x="260" y="650" width="210" height="30" as="geometry" />
        </mxCell>
        <mxCell id="mqpPeJEpPNXo4DSsm6xn-45" value="FK ppl2_conversations" style="text;strokeColor=#0e8088;fillColor=#b0e3e6;align=left;verticalAlign=middle;spacingLeft=4;spacingRight=4;overflow=hidden;points=[[0,0.5],[1,0.5]];portConstraint=eastwest;rotatable=0;whiteSpace=wrap;html=1;strokeWidth=2;container=0;" parent="WIyWlLk6GJQsqaUBKTNV-1" vertex="1">
          <mxGeometry x="260" y="620" width="210" height="30" as="geometry" />
        </mxCell>
        <mxCell id="mqpPeJEpPNXo4DSsm6xn-42" value="PK id_conversations" style="text;strokeColor=#0e8088;fillColor=#b0e3e6;align=left;verticalAlign=middle;spacingLeft=4;spacingRight=4;overflow=hidden;points=[[0,0.5],[1,0.5]];portConstraint=eastwest;rotatable=0;whiteSpace=wrap;html=1;strokeWidth=2;container=0;" parent="WIyWlLk6GJQsqaUBKTNV-1" vertex="1">
          <mxGeometry x="260" y="560" width="210" height="30" as="geometry" />
        </mxCell>
        <mxCell id="mqpPeJEpPNXo4DSsm6xn-43" value="FK ppl1_conversations" style="text;strokeColor=#0e8088;fillColor=#b0e3e6;align=left;verticalAlign=middle;spacingLeft=4;spacingRight=4;overflow=hidden;points=[[0,0.5],[1,0.5]];portConstraint=eastwest;rotatable=0;whiteSpace=wrap;html=1;strokeWidth=2;container=0;" parent="WIyWlLk6GJQsqaUBKTNV-1" vertex="1">
          <mxGeometry x="260" y="590" width="210" height="30" as="geometry" />
        </mxCell>
        <mxCell id="mqpPeJEpPNXo4DSsm6xn-48" value="PK id_friends" style="text;strokeColor=#6c8ebf;fillColor=#dae8fc;align=left;verticalAlign=middle;spacingLeft=4;spacingRight=4;overflow=hidden;points=[[0,0.5],[1,0.5]];portConstraint=eastwest;rotatable=0;whiteSpace=wrap;html=1;strokeWidth=2;container=0;" parent="WIyWlLk6GJQsqaUBKTNV-1" vertex="1">
          <mxGeometry x="260" y="360" width="210" height="30" as="geometry" />
        </mxCell>
        <mxCell id="mqpPeJEpPNXo4DSsm6xn-49" value="FK id_user_1_friends" style="text;strokeColor=#6c8ebf;fillColor=#dae8fc;align=left;verticalAlign=middle;spacingLeft=4;spacingRight=4;overflow=hidden;points=[[0,0.5],[1,0.5]];portConstraint=eastwest;rotatable=0;whiteSpace=wrap;html=1;strokeWidth=2;container=0;" parent="WIyWlLk6GJQsqaUBKTNV-1" vertex="1">
          <mxGeometry x="260" y="390" width="210" height="30" as="geometry" />
        </mxCell>
        <mxCell id="mqpPeJEpPNXo4DSsm6xn-61" value="PK id_messages" style="text;strokeColor=#82b366;fillColor=#d5e8d4;align=left;verticalAlign=middle;spacingLeft=4;spacingRight=4;overflow=hidden;points=[[0,0.5],[1,0.5]];portConstraint=eastwest;rotatable=0;whiteSpace=wrap;html=1;strokeWidth=2;container=0;" parent="WIyWlLk6GJQsqaUBKTNV-1" vertex="1">
          <mxGeometry x="260" y="130" width="210" height="30" as="geometry" />
        </mxCell>
        <mxCell id="mqpPeJEpPNXo4DSsm6xn-62" value="FK reciver_messages" style="text;strokeColor=#82b366;fillColor=#d5e8d4;align=left;verticalAlign=middle;spacingLeft=4;spacingRight=4;overflow=hidden;points=[[0,0.5],[1,0.5]];portConstraint=eastwest;rotatable=0;whiteSpace=wrap;html=1;strokeWidth=2;container=0;" parent="WIyWlLk6GJQsqaUBKTNV-1" vertex="1">
          <mxGeometry x="260" y="160" width="210" height="30" as="geometry" />
        </mxCell>
        <mxCell id="mqpPeJEpPNXo4DSsm6xn-79" value="PK id_users" style="text;strokeColor=#23445d;fillColor=#bac8d3;align=left;verticalAlign=middle;spacingLeft=4;spacingRight=4;overflow=hidden;points=[[0,0.5],[1,0.5]];portConstraint=eastwest;rotatable=0;whiteSpace=wrap;html=1;strokeWidth=2;container=0;" parent="WIyWlLk6GJQsqaUBKTNV-1" vertex="1">
          <mxGeometry x="600" y="515" width="210" height="30" as="geometry" />
        </mxCell>
        <mxCell id="mqpPeJEpPNXo4DSsm6xn-80" value="email_users" style="text;strokeColor=#23445d;fillColor=#bac8d3;align=left;verticalAlign=middle;spacingLeft=4;spacingRight=4;overflow=hidden;points=[[0,0.5],[1,0.5]];portConstraint=eastwest;rotatable=0;whiteSpace=wrap;html=1;strokeWidth=2;container=0;" parent="WIyWlLk6GJQsqaUBKTNV-1" vertex="1">
          <mxGeometry x="600" y="545" width="210" height="30" as="geometry" />
        </mxCell>
        <mxCell id="mqpPeJEpPNXo4DSsm6xn-54" value="PK id_members_storages" style="text;strokeColor=#56517e;fillColor=#d0cee2;align=left;verticalAlign=middle;spacingLeft=4;spacingRight=4;overflow=hidden;points=[[0,0.5],[1,0.5]];portConstraint=eastwest;rotatable=0;whiteSpace=wrap;html=1;strokeWidth=2;container=0;" parent="WIyWlLk6GJQsqaUBKTNV-1" vertex="1">
          <mxGeometry x="600" y="270" width="210" height="30" as="geometry" />
        </mxCell>
        <mxCell id="mqpPeJEpPNXo4DSsm6xn-55" value="id_storage_members_storages" style="text;strokeColor=#56517e;fillColor=#d0cee2;align=left;verticalAlign=middle;spacingLeft=4;spacingRight=4;overflow=hidden;points=[[0,0.5],[1,0.5]];portConstraint=eastwest;rotatable=0;whiteSpace=wrap;html=1;strokeWidth=2;container=0;" parent="WIyWlLk6GJQsqaUBKTNV-1" vertex="1">
          <mxGeometry x="600" y="300" width="210" height="30" as="geometry" />
        </mxCell>
        <mxCell id="mqpPeJEpPNXo4DSsm6xn-0" value="files" style="swimlane;fontStyle=0;childLayout=stackLayout;horizontal=1;startSize=30;horizontalStack=0;resizeParent=1;resizeParentMax=0;resizeLast=0;collapsible=1;marginBottom=0;whiteSpace=wrap;html=1;fillColor=#f8cecc;strokeColor=#b85450;strokeWidth=2;container=0;" parent="WIyWlLk6GJQsqaUBKTNV-1" vertex="1">
          <mxGeometry x="982" y="435" width="210" height="90" as="geometry" />
        </mxCell>
        <mxCell id="mqpPeJEpPNXo4DSsm6xn-4" value="FK cryptedowner_files" style="text;strokeColor=#b85450;fillColor=#f8cecc;align=left;verticalAlign=middle;spacingLeft=4;spacingRight=4;overflow=hidden;points=[[0,0.5],[1,0.5]];portConstraint=eastwest;rotatable=0;whiteSpace=wrap;html=1;strokeWidth=2;container=0;" parent="WIyWlLk6GJQsqaUBKTNV-1" vertex="1">
          <mxGeometry x="982" y="555" width="210" height="30" as="geometry" />
        </mxCell>
        <mxCell id="mqpPeJEpPNXo4DSsm6xn-3" value="cryptedname_files" style="text;strokeColor=#b85450;fillColor=#f8cecc;align=left;verticalAlign=middle;spacingLeft=4;spacingRight=4;overflow=hidden;points=[[0,0.5],[1,0.5]];portConstraint=eastwest;rotatable=0;whiteSpace=wrap;html=1;strokeWidth=2;container=0;" parent="WIyWlLk6GJQsqaUBKTNV-1" vertex="1">
          <mxGeometry x="982" y="525" width="210" height="30" as="geometry" />
        </mxCell>
        <mxCell id="mqpPeJEpPNXo4DSsm6xn-5" value="filetype_files" style="text;strokeColor=#b85450;fillColor=#f8cecc;align=left;verticalAlign=middle;spacingLeft=4;spacingRight=4;overflow=hidden;points=[[0,0.5],[1,0.5]];portConstraint=eastwest;rotatable=0;whiteSpace=wrap;html=1;strokeWidth=2;container=0;" parent="WIyWlLk6GJQsqaUBKTNV-1" vertex="1">
          <mxGeometry x="982" y="585" width="210" height="30" as="geometry" />
        </mxCell>
        <mxCell id="mqpPeJEpPNXo4DSsm6xn-6" value="delete_files" style="text;strokeColor=#b85450;fillColor=#f8cecc;align=left;verticalAlign=middle;spacingLeft=4;spacingRight=4;overflow=hidden;points=[[0,0.5],[1,0.5]];portConstraint=eastwest;rotatable=0;whiteSpace=wrap;html=1;strokeWidth=2;container=0;" parent="WIyWlLk6GJQsqaUBKTNV-1" vertex="1">
          <mxGeometry x="982" y="615" width="210" height="30" as="geometry" />
        </mxCell>
        <mxCell id="mqpPeJEpPNXo4DSsm6xn-7" value="dateofdelete_files" style="text;strokeColor=#b85450;fillColor=#f8cecc;align=left;verticalAlign=middle;spacingLeft=4;spacingRight=4;overflow=hidden;points=[[0,0.5],[1,0.5]];portConstraint=eastwest;rotatable=0;whiteSpace=wrap;html=1;strokeWidth=2;container=0;" parent="WIyWlLk6GJQsqaUBKTNV-1" vertex="1">
          <mxGeometry x="982" y="645" width="210" height="30" as="geometry" />
        </mxCell>
        <mxCell id="mqpPeJEpPNXo4DSsm6xn-8" value="origin_file" style="text;strokeColor=#b85450;fillColor=#f8cecc;align=left;verticalAlign=middle;spacingLeft=4;spacingRight=4;overflow=hidden;points=[[0,0.5],[1,0.5]];portConstraint=eastwest;rotatable=0;whiteSpace=wrap;html=1;strokeWidth=2;container=0;" parent="WIyWlLk6GJQsqaUBKTNV-1" vertex="1">
          <mxGeometry x="982" y="705" width="210" height="30" as="geometry" />
        </mxCell>
        <mxCell id="mqpPeJEpPNXo4DSsm6xn-9" value="oldcryptedname_file" style="text;strokeColor=#b85450;fillColor=#f8cecc;align=left;verticalAlign=middle;spacingLeft=4;spacingRight=4;overflow=hidden;points=[[0,0.5],[1,0.5]];portConstraint=eastwest;rotatable=0;whiteSpace=wrap;html=1;strokeWidth=2;container=0;" parent="WIyWlLk6GJQsqaUBKTNV-1" vertex="1">
          <mxGeometry x="982" y="735" width="210" height="30" as="geometry" />
        </mxCell>
        <mxCell id="mqpPeJEpPNXo4DSsm6xn-10" value="dateofupload_files" style="text;strokeColor=#b85450;fillColor=#f8cecc;align=left;verticalAlign=middle;spacingLeft=4;spacingRight=4;overflow=hidden;points=[[0,0.5],[1,0.5]];portConstraint=eastwest;rotatable=0;whiteSpace=wrap;html=1;strokeWidth=2;container=0;" parent="WIyWlLk6GJQsqaUBKTNV-1" vertex="1">
          <mxGeometry x="982" y="675" width="210" height="30" as="geometry" />
        </mxCell>
        <mxCell id="mqpPeJEpPNXo4DSsm6xn-1" value="PK id_files" style="text;strokeColor=#b85450;fillColor=#f8cecc;align=left;verticalAlign=middle;spacingLeft=4;spacingRight=4;overflow=hidden;points=[[0,0.5],[1,0.5]];portConstraint=eastwest;rotatable=0;whiteSpace=wrap;html=1;strokeWidth=2;container=0;" parent="WIyWlLk6GJQsqaUBKTNV-1" vertex="1">
          <mxGeometry x="982" y="465" width="210" height="30" as="geometry" />
        </mxCell>
        <mxCell id="mqpPeJEpPNXo4DSsm6xn-2" value="originalname_files" style="text;strokeColor=#b85450;fillColor=#f8cecc;align=left;verticalAlign=middle;spacingLeft=4;spacingRight=4;overflow=hidden;points=[[0,0.5],[1,0.5]];portConstraint=eastwest;rotatable=0;whiteSpace=wrap;html=1;strokeWidth=2;container=0;" parent="WIyWlLk6GJQsqaUBKTNV-1" vertex="1">
          <mxGeometry x="982" y="495" width="210" height="30" as="geometry" />
        </mxCell>
        <mxCell id="mqpPeJEpPNXo4DSsm6xn-33" value="storages_files" style="swimlane;fontStyle=0;childLayout=stackLayout;horizontal=1;startSize=30;horizontalStack=0;resizeParent=1;resizeParentMax=0;resizeLast=0;collapsible=1;marginBottom=0;whiteSpace=wrap;html=1;strokeWidth=2;fillColor=#fad7ac;strokeColor=#b46504;container=0;" parent="WIyWlLk6GJQsqaUBKTNV-1" vertex="1">
          <mxGeometry x="1332" y="805" width="210" height="90" as="geometry" />
        </mxCell>
        <mxCell id="mqpPeJEpPNXo4DSsm6xn-36" value="date_storages_files" style="text;strokeColor=#b46504;fillColor=#fad7ac;align=left;verticalAlign=middle;spacingLeft=4;spacingRight=4;overflow=hidden;points=[[0,0.5],[1,0.5]];portConstraint=eastwest;rotatable=0;whiteSpace=wrap;html=1;strokeWidth=2;container=0;" parent="WIyWlLk6GJQsqaUBKTNV-1" vertex="1">
          <mxGeometry x="1332" y="925" width="210" height="30" as="geometry" />
        </mxCell>
        <mxCell id="mqpPeJEpPNXo4DSsm6xn-37" value="id_files_storages_files" style="text;strokeColor=#b46504;fillColor=#fad7ac;align=left;verticalAlign=middle;spacingLeft=4;spacingRight=4;overflow=hidden;points=[[0,0.5],[1,0.5]];portConstraint=eastwest;rotatable=0;whiteSpace=wrap;html=1;strokeWidth=2;container=0;" parent="WIyWlLk6GJQsqaUBKTNV-1" vertex="1">
          <mxGeometry x="1332" y="895" width="210" height="30" as="geometry" />
        </mxCell>
        <mxCell id="mqpPeJEpPNXo4DSsm6xn-38" value="active_storages_files" style="text;strokeColor=#b46504;fillColor=#fad7ac;align=left;verticalAlign=middle;spacingLeft=4;spacingRight=4;overflow=hidden;points=[[0,0.5],[1,0.5]];portConstraint=eastwest;rotatable=0;whiteSpace=wrap;html=1;strokeWidth=2;container=0;" parent="WIyWlLk6GJQsqaUBKTNV-1" vertex="1">
          <mxGeometry x="1332" y="955" width="210" height="30" as="geometry" />
        </mxCell>
        <mxCell id="mqpPeJEpPNXo4DSsm6xn-39" value="FK modificator_storages_files" style="text;strokeColor=#b46504;fillColor=#fad7ac;align=left;verticalAlign=middle;spacingLeft=4;spacingRight=4;overflow=hidden;points=[[0,0.5],[1,0.5]];portConstraint=eastwest;rotatable=0;whiteSpace=wrap;html=1;strokeWidth=2;container=0;" parent="WIyWlLk6GJQsqaUBKTNV-1" vertex="1">
          <mxGeometry x="1332" y="985" width="210" height="30" as="geometry" />
        </mxCell>
        <mxCell id="mqpPeJEpPNXo4DSsm6xn-40" value="file_version_storages_files" style="text;strokeColor=#b46504;fillColor=#fad7ac;align=left;verticalAlign=middle;spacingLeft=4;spacingRight=4;overflow=hidden;points=[[0,0.5],[1,0.5]];portConstraint=eastwest;rotatable=0;whiteSpace=wrap;html=1;strokeWidth=2;container=0;" parent="WIyWlLk6GJQsqaUBKTNV-1" vertex="1">
          <mxGeometry x="1332" y="1015" width="210" height="30" as="geometry" />
        </mxCell>
        <mxCell id="mqpPeJEpPNXo4DSsm6xn-34" value="PK id_storages_files" style="text;strokeColor=#b46504;fillColor=#fad7ac;align=left;verticalAlign=middle;spacingLeft=4;spacingRight=4;overflow=hidden;points=[[0,0.5],[1,0.5]];portConstraint=eastwest;rotatable=0;whiteSpace=wrap;html=1;strokeWidth=2;container=0;" parent="WIyWlLk6GJQsqaUBKTNV-1" vertex="1">
          <mxGeometry x="1332" y="835" width="210" height="30" as="geometry" />
        </mxCell>
        <mxCell id="mqpPeJEpPNXo4DSsm6xn-35" value="id_storages_storages_files" style="text;strokeColor=#b46504;fillColor=#fad7ac;align=left;verticalAlign=middle;spacingLeft=4;spacingRight=4;overflow=hidden;points=[[0,0.5],[1,0.5]];portConstraint=eastwest;rotatable=0;whiteSpace=wrap;html=1;strokeWidth=2;container=0;" parent="WIyWlLk6GJQsqaUBKTNV-1" vertex="1">
          <mxGeometry x="1332" y="865" width="210" height="30" as="geometry" />
        </mxCell>
        <mxCell id="mqpPeJEpPNXo4DSsm6xn-11" value="fshare" style="swimlane;fontStyle=0;childLayout=stackLayout;horizontal=1;startSize=30;horizontalStack=0;resizeParent=1;resizeParentMax=0;resizeLast=0;collapsible=1;marginBottom=0;whiteSpace=wrap;html=1;strokeWidth=2;fillColor=#ffe6cc;strokeColor=#d79b00;container=0;" parent="WIyWlLk6GJQsqaUBKTNV-1" vertex="1">
          <mxGeometry x="982" y="90" width="210" height="90" as="geometry" />
        </mxCell>
        <mxCell id="mqpPeJEpPNXo4DSsm6xn-14" value="file_fshare" style="text;strokeColor=#d79b00;fillColor=#ffe6cc;align=left;verticalAlign=middle;spacingLeft=4;spacingRight=4;overflow=hidden;points=[[0,0.5],[1,0.5]];portConstraint=eastwest;rotatable=0;whiteSpace=wrap;html=1;strokeWidth=2;container=0;" parent="WIyWlLk6GJQsqaUBKTNV-1" vertex="1">
          <mxGeometry x="982" y="210" width="210" height="30" as="geometry" />
        </mxCell>
        <mxCell id="mqpPeJEpPNXo4DSsm6xn-15" value="FK sharedowner_fshare" style="text;strokeColor=#d79b00;fillColor=#ffe6cc;align=left;verticalAlign=middle;spacingLeft=4;spacingRight=4;overflow=hidden;points=[[0,0.5],[1,0.5]];portConstraint=eastwest;rotatable=0;whiteSpace=wrap;html=1;strokeWidth=2;container=0;" parent="WIyWlLk6GJQsqaUBKTNV-1" vertex="1">
          <mxGeometry x="982" y="180" width="210" height="30" as="geometry" />
        </mxCell>
        <mxCell id="mqpPeJEpPNXo4DSsm6xn-16" value="date_fshare" style="text;strokeColor=#d79b00;fillColor=#ffe6cc;align=left;verticalAlign=middle;spacingLeft=4;spacingRight=4;overflow=hidden;points=[[0,0.5],[1,0.5]];portConstraint=eastwest;rotatable=0;whiteSpace=wrap;html=1;strokeWidth=2;container=0;" parent="WIyWlLk6GJQsqaUBKTNV-1" vertex="1">
          <mxGeometry x="982" y="240" width="210" height="30" as="geometry" />
        </mxCell>
        <mxCell id="mqpPeJEpPNXo4DSsm6xn-17" value="id_files_fshare" style="text;strokeColor=#d79b00;fillColor=#ffe6cc;align=left;verticalAlign=middle;spacingLeft=4;spacingRight=4;overflow=hidden;points=[[0,0.5],[1,0.5]];portConstraint=eastwest;rotatable=0;whiteSpace=wrap;html=1;strokeWidth=2;container=0;" parent="WIyWlLk6GJQsqaUBKTNV-1" vertex="1">
          <mxGeometry x="982" y="270" width="210" height="30" as="geometry" />
        </mxCell>
        <mxCell id="mqpPeJEpPNXo4DSsm6xn-12" value="PK id_fshare" style="text;strokeColor=#d79b00;fillColor=#ffe6cc;align=left;verticalAlign=middle;spacingLeft=4;spacingRight=4;overflow=hidden;points=[[0,0.5],[1,0.5]];portConstraint=eastwest;rotatable=0;whiteSpace=wrap;html=1;strokeWidth=2;container=0;" parent="WIyWlLk6GJQsqaUBKTNV-1" vertex="1">
          <mxGeometry x="982" y="120" width="210" height="30" as="geometry" />
        </mxCell>
        <mxCell id="mqpPeJEpPNXo4DSsm6xn-13" value="FK originalowner_fshare" style="text;strokeColor=#d79b00;fillColor=#ffe6cc;align=left;verticalAlign=middle;spacingLeft=4;spacingRight=4;overflow=hidden;points=[[0,0.5],[1,0.5]];portConstraint=eastwest;rotatable=0;whiteSpace=wrap;html=1;strokeWidth=2;container=0;" parent="WIyWlLk6GJQsqaUBKTNV-1" vertex="1">
          <mxGeometry x="982" y="150" width="210" height="30" as="geometry" />
        </mxCell>
        <mxCell id="mqpPeJEpPNXo4DSsm6xn-22" value="storages" style="swimlane;fontStyle=0;childLayout=stackLayout;horizontal=1;startSize=30;horizontalStack=0;resizeParent=1;resizeParentMax=0;resizeLast=0;collapsible=1;marginBottom=0;whiteSpace=wrap;html=1;strokeWidth=2;fillColor=#fff2cc;strokeColor=#d6b656;container=0;" parent="WIyWlLk6GJQsqaUBKTNV-1" vertex="1">
          <mxGeometry x="962" y="835" width="210" height="90" as="geometry" />
        </mxCell>
        <mxCell id="mqpPeJEpPNXo4DSsm6xn-25" value="date_storages" style="text;strokeColor=#d6b656;fillColor=#fff2cc;align=left;verticalAlign=middle;spacingLeft=4;spacingRight=4;overflow=hidden;points=[[0,0.5],[1,0.5]];portConstraint=eastwest;rotatable=0;whiteSpace=wrap;html=1;strokeWidth=2;container=0;" parent="WIyWlLk6GJQsqaUBKTNV-1" vertex="1">
          <mxGeometry x="962" y="955" width="210" height="30" as="geometry" />
        </mxCell>
        <mxCell id="mqpPeJEpPNXo4DSsm6xn-26" value="FK owner_storages" style="text;strokeColor=#d6b656;fillColor=#fff2cc;align=left;verticalAlign=middle;spacingLeft=4;spacingRight=4;overflow=hidden;points=[[0,0.5],[1,0.5]];portConstraint=eastwest;rotatable=0;whiteSpace=wrap;html=1;strokeWidth=2;container=0;" parent="WIyWlLk6GJQsqaUBKTNV-1" vertex="1">
          <mxGeometry x="962" y="925" width="210" height="30" as="geometry" />
        </mxCell>
        <mxCell id="mqpPeJEpPNXo4DSsm6xn-27" value="active_storages" style="text;strokeColor=#d6b656;fillColor=#fff2cc;align=left;verticalAlign=middle;spacingLeft=4;spacingRight=4;overflow=hidden;points=[[0,0.5],[1,0.5]];portConstraint=eastwest;rotatable=0;whiteSpace=wrap;html=1;strokeWidth=2;container=0;" parent="WIyWlLk6GJQsqaUBKTNV-1" vertex="1">
          <mxGeometry x="962" y="985" width="210" height="30" as="geometry" />
        </mxCell>
        <mxCell id="mqpPeJEpPNXo4DSsm6xn-23" value="PK id_storages" style="text;strokeColor=#d6b656;fillColor=#fff2cc;align=left;verticalAlign=middle;spacingLeft=4;spacingRight=4;overflow=hidden;points=[[0,0.5],[1,0.5]];portConstraint=eastwest;rotatable=0;whiteSpace=wrap;html=1;strokeWidth=2;container=0;" parent="WIyWlLk6GJQsqaUBKTNV-1" vertex="1">
          <mxGeometry x="962" y="865" width="210" height="30" as="geometry" />
        </mxCell>
        <mxCell id="mqpPeJEpPNXo4DSsm6xn-24" value="name_storages" style="text;strokeColor=#d6b656;fillColor=#fff2cc;align=left;verticalAlign=middle;spacingLeft=4;spacingRight=4;overflow=hidden;points=[[0,0.5],[1,0.5]];portConstraint=eastwest;rotatable=0;whiteSpace=wrap;html=1;strokeWidth=2;container=0;" parent="WIyWlLk6GJQsqaUBKTNV-1" vertex="1">
          <mxGeometry x="962" y="895" width="210" height="30" as="geometry" />
        </mxCell>
        <mxCell id="eUwCKPbLnIZFD1JXLJ_f-0" value="" style="endArrow=none;html=1;rounded=0;exitX=1;exitY=0.5;exitDx=0;exitDy=0;entryX=0;entryY=0.5;entryDx=0;entryDy=0;strokeColor=#FF0000;strokeWidth=2;" edge="1" parent="WIyWlLk6GJQsqaUBKTNV-1" source="mqpPeJEpPNXo4DSsm6xn-45" target="mqpPeJEpPNXo4DSsm6xn-85">
          <mxGeometry width="50" height="50" relative="1" as="geometry">
            <mxPoint x="540" y="620" as="sourcePoint" />
            <mxPoint x="590" y="570" as="targetPoint" />
            <Array as="points">
              <mxPoint x="540" y="635" />
              <mxPoint x="540" y="710" />
            </Array>
          </mxGeometry>
        </mxCell>
        <mxCell id="eUwCKPbLnIZFD1JXLJ_f-1" value="" style="endArrow=none;html=1;rounded=0;exitX=1;exitY=0.5;exitDx=0;exitDy=0;entryX=0;entryY=0.5;entryDx=0;entryDy=0;strokeColor=#FF0000;strokeWidth=2;" edge="1" parent="WIyWlLk6GJQsqaUBKTNV-1" source="mqpPeJEpPNXo4DSsm6xn-69" target="mqpPeJEpPNXo4DSsm6xn-85">
          <mxGeometry width="50" height="50" relative="1" as="geometry">
            <mxPoint x="480" y="645" as="sourcePoint" />
            <mxPoint x="610" y="720" as="targetPoint" />
            <Array as="points">
              <mxPoint x="540" y="780" />
              <mxPoint x="540" y="710" />
            </Array>
          </mxGeometry>
        </mxCell>
        <mxCell id="eUwCKPbLnIZFD1JXLJ_f-2" value="" style="endArrow=none;html=1;rounded=0;exitX=1;exitY=0.5;exitDx=0;exitDy=0;strokeColor=#FF0000;strokeWidth=2;" edge="1" parent="WIyWlLk6GJQsqaUBKTNV-1" source="mqpPeJEpPNXo4DSsm6xn-43">
          <mxGeometry width="50" height="50" relative="1" as="geometry">
            <mxPoint x="490" y="790" as="sourcePoint" />
            <mxPoint x="600" y="710" as="targetPoint" />
            <Array as="points">
              <mxPoint x="540" y="605" />
              <mxPoint x="540" y="710" />
            </Array>
          </mxGeometry>
        </mxCell>
        <mxCell id="eUwCKPbLnIZFD1JXLJ_f-3" value="" style="endArrow=none;html=1;rounded=0;exitX=1;exitY=0.5;exitDx=0;exitDy=0;strokeColor=#FF0000;strokeWidth=2;" edge="1" parent="WIyWlLk6GJQsqaUBKTNV-1" source="mqpPeJEpPNXo4DSsm6xn-64">
          <mxGeometry width="50" height="50" relative="1" as="geometry">
            <mxPoint x="490" y="450" as="sourcePoint" />
            <mxPoint x="600" y="710" as="targetPoint" />
            <Array as="points">
              <mxPoint x="540" y="205" />
              <mxPoint x="540" y="710" />
            </Array>
          </mxGeometry>
        </mxCell>
        <mxCell id="eUwCKPbLnIZFD1JXLJ_f-4" value="" style="endArrow=none;html=1;rounded=0;exitX=1;exitY=0.5;exitDx=0;exitDy=0;strokeColor=#FF0000;strokeWidth=2;" edge="1" parent="WIyWlLk6GJQsqaUBKTNV-1" source="mqpPeJEpPNXo4DSsm6xn-62">
          <mxGeometry width="50" height="50" relative="1" as="geometry">
            <mxPoint x="480" y="215" as="sourcePoint" />
            <mxPoint x="600" y="710" as="targetPoint" />
            <Array as="points">
              <mxPoint x="540" y="175" />
              <mxPoint x="540" y="710" />
            </Array>
          </mxGeometry>
        </mxCell>
        <mxCell id="eUwCKPbLnIZFD1JXLJ_f-5" value="" style="endArrow=none;html=1;rounded=0;exitX=0;exitY=0.5;exitDx=0;exitDy=0;entryX=0;entryY=0.5;entryDx=0;entryDy=0;strokeColor=#FF0000;strokeWidth=2;" edge="1" parent="WIyWlLk6GJQsqaUBKTNV-1" source="PCbA790wtaqUP_7SGAwk-8" target="mqpPeJEpPNXo4DSsm6xn-85">
          <mxGeometry width="50" height="50" relative="1" as="geometry">
            <mxPoint x="490" y="790" as="sourcePoint" />
            <mxPoint x="610" y="720" as="targetPoint" />
            <Array as="points">
              <mxPoint x="540" y="900" />
              <mxPoint x="540" y="710" />
            </Array>
          </mxGeometry>
        </mxCell>
        <mxCell id="eUwCKPbLnIZFD1JXLJ_f-6" value="" style="endArrow=none;html=1;rounded=0;exitX=1;exitY=0.5;exitDx=0;exitDy=0;entryX=0;entryY=0.5;entryDx=0;entryDy=0;strokeWidth=2;strokeColor=#FF0000;" edge="1" parent="WIyWlLk6GJQsqaUBKTNV-1" source="mqpPeJEpPNXo4DSsm6xn-85" target="mqpPeJEpPNXo4DSsm6xn-13">
          <mxGeometry width="50" height="50" relative="1" as="geometry">
            <mxPoint x="740" y="650" as="sourcePoint" />
            <mxPoint x="790" y="600" as="targetPoint" />
            <Array as="points">
              <mxPoint x="910" y="710" />
              <mxPoint x="910" y="165" />
            </Array>
          </mxGeometry>
        </mxCell>
        <mxCell id="eUwCKPbLnIZFD1JXLJ_f-7" value="" style="endArrow=none;html=1;rounded=0;exitX=1;exitY=0.5;exitDx=0;exitDy=0;entryX=0;entryY=0.5;entryDx=0;entryDy=0;strokeWidth=2;strokeColor=#FF0000;" edge="1" parent="WIyWlLk6GJQsqaUBKTNV-1" source="mqpPeJEpPNXo4DSsm6xn-85" target="mqpPeJEpPNXo4DSsm6xn-15">
          <mxGeometry width="50" height="50" relative="1" as="geometry">
            <mxPoint x="820" y="720" as="sourcePoint" />
            <mxPoint x="992" y="175" as="targetPoint" />
            <Array as="points">
              <mxPoint x="910" y="710" />
              <mxPoint x="910" y="195" />
            </Array>
          </mxGeometry>
        </mxCell>
        <mxCell id="eUwCKPbLnIZFD1JXLJ_f-8" value="" style="endArrow=none;html=1;rounded=0;exitX=1;exitY=0.5;exitDx=0;exitDy=0;entryX=0;entryY=0.5;entryDx=0;entryDy=0;strokeWidth=2;strokeColor=#FF0000;" edge="1" parent="WIyWlLk6GJQsqaUBKTNV-1" source="mqpPeJEpPNXo4DSsm6xn-85" target="mqpPeJEpPNXo4DSsm6xn-4">
          <mxGeometry width="50" height="50" relative="1" as="geometry">
            <mxPoint x="830" y="730" as="sourcePoint" />
            <mxPoint x="1002" y="185" as="targetPoint" />
            <Array as="points">
              <mxPoint x="910" y="710" />
              <mxPoint x="910" y="570" />
            </Array>
          </mxGeometry>
        </mxCell>
        <mxCell id="eUwCKPbLnIZFD1JXLJ_f-9" value="" style="endArrow=none;html=1;rounded=0;exitX=1;exitY=0.5;exitDx=0;exitDy=0;entryX=0;entryY=0.5;entryDx=0;entryDy=0;strokeWidth=2;strokeColor=#FF0000;" edge="1" parent="WIyWlLk6GJQsqaUBKTNV-1" source="mqpPeJEpPNXo4DSsm6xn-85" target="mqpPeJEpPNXo4DSsm6xn-26">
          <mxGeometry width="50" height="50" relative="1" as="geometry">
            <mxPoint x="820" y="720" as="sourcePoint" />
            <mxPoint x="992" y="580" as="targetPoint" />
            <Array as="points">
              <mxPoint x="910" y="710" />
              <mxPoint x="910" y="940" />
            </Array>
          </mxGeometry>
        </mxCell>
        <mxCell id="eUwCKPbLnIZFD1JXLJ_f-10" value="" style="endArrow=none;html=1;rounded=0;exitX=1;exitY=0.5;exitDx=0;exitDy=0;entryX=0;entryY=0.5;entryDx=0;entryDy=0;strokeWidth=2;strokeColor=#FF0000;" edge="1" parent="WIyWlLk6GJQsqaUBKTNV-1" source="mqpPeJEpPNXo4DSsm6xn-85" target="mqpPeJEpPNXo4DSsm6xn-39">
          <mxGeometry width="50" height="50" relative="1" as="geometry">
            <mxPoint x="820" y="720" as="sourcePoint" />
            <mxPoint x="972" y="950" as="targetPoint" />
            <Array as="points">
              <mxPoint x="910" y="710" />
              <mxPoint x="910" y="800" />
              <mxPoint x="1190" y="800" />
              <mxPoint x="1190" y="1000" />
            </Array>
          </mxGeometry>
        </mxCell>
        <mxCell id="eUwCKPbLnIZFD1JXLJ_f-11" value="" style="endArrow=none;html=1;rounded=0;exitX=0;exitY=0.5;exitDx=0;exitDy=0;entryX=1;entryY=0.5;entryDx=0;entryDy=0;" edge="1" parent="WIyWlLk6GJQsqaUBKTNV-1" source="mqpPeJEpPNXo4DSsm6xn-79" target="mqpPeJEpPNXo4DSsm6xn-51">
          <mxGeometry width="50" height="50" relative="1" as="geometry">
            <mxPoint x="850" y="560" as="sourcePoint" />
            <mxPoint x="900" y="510" as="targetPoint" />
            <Array as="points">
              <mxPoint x="560" y="530" />
              <mxPoint x="560" y="435" />
            </Array>
          </mxGeometry>
        </mxCell>
        <mxCell id="eUwCKPbLnIZFD1JXLJ_f-12" value="" style="endArrow=none;html=1;rounded=0;entryX=0.994;entryY=0.661;entryDx=0;entryDy=0;entryPerimeter=0;" edge="1" parent="WIyWlLk6GJQsqaUBKTNV-1" target="mqpPeJEpPNXo4DSsm6xn-49">
          <mxGeometry width="50" height="50" relative="1" as="geometry">
            <mxPoint x="600" y="530" as="sourcePoint" />
            <mxPoint x="480" y="445" as="targetPoint" />
            <Array as="points">
              <mxPoint x="560" y="530" />
              <mxPoint x="560" y="410" />
            </Array>
          </mxGeometry>
        </mxCell>
        <mxCell id="eUwCKPbLnIZFD1JXLJ_f-13" value="" style="endArrow=none;html=1;rounded=0;entryX=0;entryY=0.5;entryDx=0;entryDy=0;" edge="1" parent="WIyWlLk6GJQsqaUBKTNV-1" target="mqpPeJEpPNXo4DSsm6xn-57">
          <mxGeometry width="50" height="50" relative="1" as="geometry">
            <mxPoint x="600" y="530" as="sourcePoint" />
            <mxPoint x="480" y="415" as="targetPoint" />
            <Array as="points">
              <mxPoint x="560" y="530" />
              <mxPoint x="560" y="345" />
            </Array>
          </mxGeometry>
        </mxCell>
        <mxCell id="eUwCKPbLnIZFD1JXLJ_f-14" value="" style="endArrow=none;html=1;rounded=0;exitX=1;exitY=0.5;exitDx=0;exitDy=0;entryX=0;entryY=0.5;entryDx=0;entryDy=0;" edge="1" parent="WIyWlLk6GJQsqaUBKTNV-1" source="mqpPeJEpPNXo4DSsm6xn-77" target="mqpPeJEpPNXo4DSsm6xn-80">
          <mxGeometry width="50" height="50" relative="1" as="geometry">
            <mxPoint x="770" y="650" as="sourcePoint" />
            <mxPoint x="820" y="600" as="targetPoint" />
            <Array as="points">
              <mxPoint x="570" y="960" />
              <mxPoint x="570" y="560" />
            </Array>
          </mxGeometry>
        </mxCell>
        <mxCell id="eUwCKPbLnIZFD1JXLJ_f-15" value="" style="endArrow=none;html=1;rounded=0;exitX=0;exitY=0.5;exitDx=0;exitDy=0;entryX=0;entryY=0.5;entryDx=0;entryDy=0;" edge="1" parent="WIyWlLk6GJQsqaUBKTNV-1" source="mqpPeJEpPNXo4DSsm6xn-52" target="mqpPeJEpPNXo4DSsm6xn-75">
          <mxGeometry width="50" height="50" relative="1" as="geometry">
            <mxPoint x="580" y="610" as="sourcePoint" />
            <mxPoint x="630" y="560" as="targetPoint" />
            <Array as="points">
              <mxPoint x="220" y="495" />
              <mxPoint x="220" y="990" />
            </Array>
          </mxGeometry>
        </mxCell>
        <mxCell id="eUwCKPbLnIZFD1JXLJ_f-16" value="" style="endArrow=none;html=1;rounded=0;exitX=0;exitY=0.5;exitDx=0;exitDy=0;entryX=0;entryY=0.5;entryDx=0;entryDy=0;" edge="1" parent="WIyWlLk6GJQsqaUBKTNV-1" source="mqpPeJEpPNXo4DSsm6xn-52" target="mqpPeJEpPNXo4DSsm6xn-44">
          <mxGeometry width="50" height="50" relative="1" as="geometry">
            <mxPoint x="270" y="505" as="sourcePoint" />
            <mxPoint x="280" y="1000" as="targetPoint" />
            <Array as="points">
              <mxPoint x="220" y="495" />
              <mxPoint x="220" y="665" />
            </Array>
          </mxGeometry>
        </mxCell>
        <mxCell id="eUwCKPbLnIZFD1JXLJ_f-17" value="" style="endArrow=none;html=1;rounded=0;exitX=0;exitY=0.5;exitDx=0;exitDy=0;entryX=0;entryY=0.5;entryDx=0;entryDy=0;" edge="1" parent="WIyWlLk6GJQsqaUBKTNV-1" source="mqpPeJEpPNXo4DSsm6xn-52" target="mqpPeJEpPNXo4DSsm6xn-66">
          <mxGeometry width="50" height="50" relative="1" as="geometry">
            <mxPoint x="280" y="515" as="sourcePoint" />
            <mxPoint x="290" y="1010" as="targetPoint" />
            <Array as="points">
              <mxPoint x="220" y="495" />
              <mxPoint x="220" y="295" />
            </Array>
          </mxGeometry>
        </mxCell>
        <mxCell id="eUwCKPbLnIZFD1JXLJ_f-18" value="" style="endArrow=none;html=1;rounded=0;exitX=1;exitY=0.5;exitDx=0;exitDy=0;entryX=0;entryY=0.5;entryDx=0;entryDy=0;" edge="1" parent="WIyWlLk6GJQsqaUBKTNV-1" source="mqpPeJEpPNXo4DSsm6xn-22" target="mqpPeJEpPNXo4DSsm6xn-35">
          <mxGeometry width="50" height="50" relative="1" as="geometry">
            <mxPoint x="1400" y="660" as="sourcePoint" />
            <mxPoint x="1330" y="880" as="targetPoint" />
          </mxGeometry>
        </mxCell>
        <mxCell id="eUwCKPbLnIZFD1JXLJ_f-21" value="" style="endArrow=none;html=1;rounded=0;exitX=1;exitY=0.5;exitDx=0;exitDy=0;entryX=0;entryY=0.5;entryDx=0;entryDy=0;fontColor=#7EA6E0;" edge="1" parent="WIyWlLk6GJQsqaUBKTNV-1" source="mqpPeJEpPNXo4DSsm6xn-3" target="mqpPeJEpPNXo4DSsm6xn-37">
          <mxGeometry width="50" height="50" relative="1" as="geometry">
            <mxPoint x="1300" y="610" as="sourcePoint" />
            <mxPoint x="1350" y="560" as="targetPoint" />
            <Array as="points">
              <mxPoint x="1260" y="540" />
              <mxPoint x="1260" y="480" />
              <mxPoint x="1260" y="910" />
            </Array>
          </mxGeometry>
        </mxCell>
        <mxCell id="eUwCKPbLnIZFD1JXLJ_f-22" value="" style="endArrow=none;html=1;rounded=0;entryX=1;entryY=0.5;entryDx=0;entryDy=0;" edge="1" parent="WIyWlLk6GJQsqaUBKTNV-1" target="mqpPeJEpPNXo4DSsm6xn-17">
          <mxGeometry width="50" height="50" relative="1" as="geometry">
            <mxPoint x="1260" y="480" as="sourcePoint" />
            <mxPoint x="1342" y="920" as="targetPoint" />
            <Array as="points">
              <mxPoint x="1192" y="480" />
              <mxPoint x="1260" y="480" />
              <mxPoint x="1260" y="285" />
            </Array>
          </mxGeometry>
        </mxCell>
        <mxCell id="eUwCKPbLnIZFD1JXLJ_f-23" value="" style="endArrow=none;html=1;rounded=0;entryX=1;entryY=0.5;entryDx=0;entryDy=0;fontColor=#67AB9F;strokeColor=#67AB9F;strokeWidth=2;" edge="1" parent="WIyWlLk6GJQsqaUBKTNV-1" target="mqpPeJEpPNXo4DSsm6xn-14">
          <mxGeometry width="50" height="50" relative="1" as="geometry">
            <mxPoint x="1190" y="540" as="sourcePoint" />
            <mxPoint x="1202" y="295" as="targetPoint" />
            <Array as="points">
              <mxPoint x="1260" y="540" />
              <mxPoint x="1300" y="540" />
              <mxPoint x="1300" y="225" />
              <mxPoint x="1260" y="225" />
            </Array>
          </mxGeometry>
        </mxCell>
        <mxCell id="eUwCKPbLnIZFD1JXLJ_f-25" value="" style="endArrow=none;html=1;rounded=0;exitX=0;exitY=0.5;exitDx=0;exitDy=0;entryX=0;entryY=0.5;entryDx=0;entryDy=0;strokeColor=#FF0000;strokeWidth=2;" edge="1" parent="WIyWlLk6GJQsqaUBKTNV-1" source="mqpPeJEpPNXo4DSsm6xn-85" target="mqpPeJEpPNXo4DSsm6xn-58">
          <mxGeometry width="50" height="50" relative="1" as="geometry">
            <mxPoint x="730" y="590" as="sourcePoint" />
            <mxPoint x="780" y="540" as="targetPoint" />
            <Array as="points">
              <mxPoint x="540" y="710" />
              <mxPoint x="540" y="405" />
            </Array>
          </mxGeometry>
        </mxCell>
        <mxCell id="eUwCKPbLnIZFD1JXLJ_f-58" value="N" style="text;html=1;align=center;verticalAlign=middle;whiteSpace=wrap;rounded=0;fontColor=#FF0000;fontStyle=1" vertex="1" parent="WIyWlLk6GJQsqaUBKTNV-1">
          <mxGeometry x="940" y="172" width="60" height="30" as="geometry" />
        </mxCell>
      </root>
    </mxGraphModel>
  </diagram>
</mxfile>
